<svg width="40" height="37" viewBox="0 0 40 37" fill="none" xmlns="http://www.w3.org/2000/svg">
<path d="M35.417 15.9167L34.0962 4.69417C34.0008 3.88318 33.6111 3.1354 33.001 2.5927C32.3908 2.04999 31.6027 1.75013 30.7862 1.75H10.0478C9.23125 1.75013 8.44314 2.04999 7.833 2.5927C7.22286 3.1354 6.83316 3.88318 6.73783 4.69417L5.41699 15.9167" stroke="#D9E4D4" stroke-width="3" stroke-miterlimit="10"/>
<path d="M11.2502 32.5834V35.0834H4.5835V32.5834" stroke="#D9E4D4" stroke-width="3" stroke-miterlimit="10" stroke-linecap="square"/>
<path d="M36.2502 32.5834V35.0834H29.5835V32.5834" stroke="#D9E4D4" stroke-width="3" stroke-miterlimit="10" stroke-linecap="square"/>
<path d="M38.7502 29.25H2.0835V21.25C2.08314 20.4928 2.3406 19.758 2.8135 19.1666L5.41683 15.9166H35.4168L38.0202 19.1708C38.4922 19.7611 38.7496 20.4942 38.7502 21.25V29.25Z" stroke="#D9E4D4" stroke-width="3" stroke-miterlimit="10" stroke-linecap="square"/>
<path d="M32.0835 25.0834C33.4642 25.0834 34.5835 23.9641 34.5835 22.5834C34.5835 21.2027 33.4642 20.0834 32.0835 20.0834C30.7028 20.0834 29.5835 21.2027 29.5835 22.5834C29.5835 23.9641 30.7028 25.0834 32.0835 25.0834Z" stroke="#D9E4D4" stroke-width="3" stroke-miterlimit="10" stroke-linecap="square"/>
<path d="M8.75 25.0834C10.1307 25.0834 11.25 23.9641 11.25 22.5834C11.25 21.2027 10.1307 20.0834 8.75 20.0834C7.36929 20.0834 6.25 21.2027 6.25 22.5834C6.25 23.9641 7.36929 25.0834 8.75 25.0834Z" stroke="#D9E4D4" stroke-width="3" stroke-miterlimit="10" stroke-linecap="square"/>
<path d="M17.0835 22.5834H23.7502" stroke="#D9E4D4" stroke-width="3" stroke-miterlimit="10" stroke-linecap="square"/>
</svg>
