<svg width="39" height="25" viewBox="0 0 39 25" fill="none" xmlns="http://www.w3.org/2000/svg">
<path d="M18.5387 22.7401C15.243 22.4576 14.007 22.1751 12.7711 21.7514C9.61268 20.4802 6.72887 16.5254 6.72887 13.4181C6.72887 12.7119 6.8662 12.2881 7.14084 11.2994C8.23944 11.5819 9.06338 11.7232 10.2993 11.7232C14.5563 11.7232 17.5775 9.18079 17.5775 5.79096C17.5775 2.40113 14.5563 0 10.2993 0C4.39437 0 0 4.66102 0 11.1582C0 19.3503 6.3169 25 15.3803 25C16.4789 25 17.3028 25 18.6761 24.7175L18.5387 22.7401ZM38.8627 22.7401C35.4296 22.4576 34.331 22.1751 32.9577 21.7514C29.9366 20.4802 26.9155 16.5254 26.9155 13.4181C26.9155 12.7119 27.0528 12.2881 27.3275 11.2994C28.4261 11.5819 29.3873 11.7232 30.4859 11.7232C34.743 11.7232 37.7641 9.18079 37.7641 5.79096C37.7641 2.40113 34.743 0 30.4859 0C24.581 0 20.1866 4.66102 20.1866 11.1582C20.1866 19.3503 26.5035 25 35.5669 25C36.6655 25 37.4894 25 39 24.7175L38.8627 22.7401Z" fill="#7B9E6B"/>
</svg>
