<svg width="155" height="96" viewBox="0 0 155 96" fill="none">
<path d="M53.7386 79.944H52.2742V84.2211H51.4731V79.944H49.9976V79.623H53.7386V79.944Z" fill="#635245"/>
<path d="M60.4123 83.9V84.221H57.0923V79.6191H60.3452V79.9401H57.8897V81.7278H59.8198V82.0451H57.8897V83.8963H60.4123V83.9Z" fill="#635245"/>
<path d="M67.7527 84.221H66.8659C66.7355 84.1277 66.6237 83.9784 66.5492 83.8403L65.9306 82.6572C65.8636 82.5377 65.7741 82.422 65.6549 82.3399H64.6302V84.221H63.8291V79.6191H65.7183C66.6833 79.6191 67.4099 80.1902 67.4099 80.9739C67.4099 81.6121 66.9442 82.1048 66.2697 82.2765C66.538 82.3698 66.728 82.5452 66.8398 82.7841L67.3503 83.7246C67.4621 83.9261 67.6149 84.1277 67.7527 84.221ZM64.6339 82.0264H65.5469C66.1766 82.0264 66.5902 81.6121 66.5902 80.9814C66.5902 80.3507 66.1766 79.9438 65.5469 79.9438H64.6339V82.0264Z" fill="#635245"/>
<path d="M74.9033 84.221H74.0165C73.8861 84.1277 73.7743 83.9784 73.6998 83.8403L73.0849 82.6572C73.0179 82.5377 72.9284 82.422 72.8092 82.3399H71.7845V84.221H70.9834V79.6191H72.8726C73.8376 79.6191 74.5642 80.1902 74.5642 80.9739C74.5642 81.6121 74.0985 82.1048 73.424 82.2765C73.6923 82.3698 73.8823 82.5452 73.9941 82.7841L74.5046 83.7246C74.6164 83.9261 74.7654 84.1277 74.9033 84.221ZM71.7882 82.0264H72.7011C73.3309 82.0264 73.7445 81.6121 73.7445 80.9814C73.7445 80.3507 73.3309 79.9438 72.7011 79.9438H71.7882V82.0264Z" fill="#635245"/>
<path d="M80.7828 83.0117H78.7483L78.2304 84.221H77.8242L79.8401 79.6191H80.1493L82.1577 84.221H81.3119L80.7828 83.0117ZM80.6449 82.6945L79.7655 80.6567L78.8862 82.6945H80.6449Z" fill="#635245"/>
<path d="M89.2301 83.3812C88.9543 83.9 88.2575 84.2881 87.4043 84.2881C86.033 84.2881 84.9487 83.2841 84.9487 81.9219C84.9487 80.5932 85.9921 79.5557 87.3894 79.5557C88.4252 79.5557 89.1854 80.1192 89.1854 80.7462V80.7612C89.1854 80.9926 89.0065 81.1754 88.7606 81.1754C88.5109 81.1754 88.3209 80.9963 88.3209 80.7462C88.3209 80.541 88.4513 80.3842 88.6376 80.332C88.455 80.0968 88.0936 79.9363 87.6278 79.9363C86.4988 79.9363 85.7759 80.6977 85.7759 81.9144C85.7759 83.1423 86.5025 83.9037 87.6129 83.9037C88.2501 83.9037 88.7606 83.6163 89.0177 83.161L89.2301 83.3812Z" fill="#635245"/>
<path d="M96.0153 83.9V84.221H92.6953V79.6191H95.9482V79.9401H93.4927V81.7278H95.4228V82.0451H93.4927V83.8963H96.0153V83.9Z" fill="#635245"/>
<path d="M102.499 82.9708C102.499 83.7583 101.791 84.2845 100.781 84.2845C99.8236 84.2845 99.0635 83.818 99.0635 83.2059C99.0635 82.9894 99.2274 82.8252 99.4585 82.8252C99.6671 82.8252 99.8273 82.9894 99.8273 83.2059C99.8273 83.3701 99.7342 83.5008 99.6038 83.553C99.8013 83.7881 100.189 83.9412 100.647 83.9412C101.318 83.9412 101.795 83.6762 101.795 83.2246C101.795 82.7916 101.251 82.549 100.628 82.2766C99.954 82.0004 99.1529 81.6794 99.1529 80.8509C99.1529 80.0746 99.8609 79.5483 100.807 79.5483C101.668 79.5483 102.328 79.9738 102.328 80.5523C102.328 80.7688 102.171 80.933 101.959 80.933C101.728 80.933 101.564 80.7688 101.564 80.5523C101.564 80.3956 101.657 80.2612 101.795 80.2089C101.623 80.0037 101.295 79.8805 100.915 79.8805C100.297 79.8805 99.8311 80.1642 99.8311 80.6158C99.8311 81.0823 100.42 81.3398 101.027 81.5824C101.761 81.881 102.499 82.1721 102.499 82.9708Z" fill="#635245"/>
<path d="M16.4767 59.5024H14.6435C12.9481 59.5024 12.0985 60.2824 12.0985 61.8462H11.6924V60.316C11.6924 59.23 12.2699 58.6851 13.4213 58.6851H22.5839V59.5024H18.31V72.1434H16.4767V59.5024Z" fill="#635245"/>
<path d="M24.5327 61.1334C24.5327 60.4392 24.5327 58.6851 24.5327 58.6851H26.366V64.8022H32.4731V58.6851H34.3064V69.6951C34.3064 70.3893 34.3995 70.9006 34.5896 71.2328C34.7796 71.5649 35.1597 71.7329 35.7298 71.7329H36.1359V72.1397H34.3027C33.7996 72.1397 33.4233 72.0762 33.1736 71.9456C32.924 71.815 32.7414 71.5836 32.6333 71.244C32.5253 70.9043 32.4694 70.3893 32.4694 69.6951V65.6158H26.366V72.1397H24.5327V61.1334Z" fill="#635245"/>
<path d="M38.3716 58.6851H45.2128C46.3679 58.6851 46.9417 59.23 46.9417 60.316V61.8462H46.5356C46.5356 60.2824 45.686 59.5024 43.9906 59.5024H40.2048V64.8022H45.7009V65.6158H40.2048V71.3261H43.767C44.7023 71.3261 45.4363 71.1544 45.9655 70.8148C46.4946 70.4751 46.9156 69.8966 47.2286 69.083L47.6348 69.1838L46.9231 71.1208C46.6771 71.8001 46.1704 72.1397 45.3954 72.1397H38.3716V58.6851Z" fill="#635245"/>
<path d="M55.985 61.07C55.6459 60.2825 55.3255 59.7413 55.0274 59.4502C54.7293 59.1591 54.3008 58.9837 53.7456 58.9314V58.5246C53.8127 58.5246 53.9133 58.5172 54.04 58.506C54.1704 58.491 54.3008 58.4873 54.4387 58.4873C55.1168 58.4873 55.7689 58.659 56.3912 59.0061C57.0134 59.3532 57.5425 60.0436 57.9785 61.0737L61.4587 69.2883L62.6585 66.4966C63.2286 65.1792 64.3204 62.5741 65.9338 58.6888H66.9101L61.0675 72.3487H60.7023L55.985 61.07Z" fill="#635245"/>
<path d="M68.8177 58.6851H75.6552C76.8103 58.6851 77.3841 59.23 77.3841 60.316V61.8462H76.9779C76.9779 60.2824 76.1284 59.5024 74.433 59.5024H70.6472V64.8022H76.1433V65.6158H70.6472V71.3261H74.2094C75.1447 71.3261 75.8787 71.1544 76.4078 70.8148C76.937 70.4751 77.358 69.8966 77.671 69.083L78.0772 69.1838L77.3655 71.1208C77.1195 71.8001 76.6128 72.1397 75.8377 72.1397H68.814V58.6851H68.8177Z" fill="#635245"/>
<path d="M87.5864 71.703C87.0498 71.2738 86.4574 70.505 85.8053 69.389L83.7708 65.9218H82.3474V72.1397H80.5142V58.6851H83.9757C85.265 58.6851 86.435 58.9388 87.4858 59.4502C88.5365 59.9615 89.0619 60.9281 89.0619 62.3538C89.0619 64.1602 87.9776 65.3172 85.8053 65.821L87.9441 69.389C88.4471 70.2325 88.898 70.8185 89.2967 71.1544C89.6954 71.4865 90.1611 71.6806 90.6902 71.7366V72.1434C90.5673 72.1994 90.3959 72.2442 90.1723 72.2852C89.9487 72.3263 89.714 72.345 89.4718 72.345C88.7489 72.345 88.1229 72.1322 87.5864 71.703ZM85.2464 64.9029C85.7419 64.6977 86.163 64.3804 86.5095 63.9437C86.8561 63.5071 87.0275 62.9771 87.0275 62.3538C87.0275 61.6895 86.8561 61.1334 86.5095 60.693C86.163 60.2526 85.7419 59.9242 85.2464 59.7151C84.7508 59.5061 84.3036 59.439 83.8826 59.439C83.4056 59.439 82.8877 59.4688 82.3474 59.6032V65.0074C82.8914 65.1418 83.3982 65.2127 83.8751 65.2127C84.2925 65.209 84.7508 65.1082 85.2464 64.9029Z" fill="#635245"/>
<path d="M93.0264 58.6851H96.5327C99.1633 58.6851 101.157 59.271 102.506 60.4392C103.855 61.6074 104.533 63.2384 104.533 65.3321C104.533 66.6795 104.25 67.8626 103.679 68.8889C103.109 69.9153 102.263 70.714 101.146 71.285C100.028 71.856 98.664 72.1397 97.0655 72.1397H93.0338L93.0264 58.6851ZM99.7185 70.6841C100.527 70.1877 101.161 69.4898 101.623 68.5829C102.085 67.6797 102.316 66.6235 102.316 65.4142C102.316 64.2311 102.088 63.1861 101.634 62.2754C101.179 61.3648 100.546 60.6594 99.7297 60.1555C98.9137 59.6517 97.997 59.439 96.9686 59.439C96.3165 59.439 95.6309 59.5099 94.9267 59.7301V71.1693C95.6868 71.3447 96.3799 71.4343 97.0022 71.4343C98.0045 71.4268 98.9099 71.1805 99.7185 70.6841Z" fill="#635245"/>
<path d="M116.02 71.7032C115.383 71.3449 114.873 70.6395 114.493 69.5945L113.982 68.2696H108.281L106.653 72.1436H105.736L111.437 58.689H112.048L116.527 69.5982C116.866 70.3857 117.187 70.9269 117.485 71.218C117.783 71.5091 118.211 71.6845 118.767 71.7368V72.1436C118.521 72.2108 118.252 72.2444 117.951 72.2444C117.302 72.2444 116.658 72.0615 116.02 71.7032ZM108.591 67.4522H113.576L111.132 61.5404L108.591 67.4522Z" fill="#635245"/>
<path d="M140.557 71.7032C139.92 71.3449 139.409 70.6395 139.029 69.5945L138.519 68.2696H132.818L131.19 72.1436H130.273L135.974 58.689H136.585L141.064 69.5982C141.403 70.3857 141.723 70.9269 142.021 71.218C142.32 71.5091 142.748 71.6845 143.303 71.7368V72.1436C143.057 72.2108 142.789 72.2444 142.487 72.2444C141.839 72.2444 141.194 72.0615 140.557 71.7032ZM133.127 67.4522H138.113L135.668 61.5404L133.127 67.4522Z" fill="#635245"/>
<path d="M122.463 71.3262V61.1336C122.463 60.4394 122.407 59.9243 122.299 59.5847C122.191 59.2451 122.012 59.0099 121.759 58.883C121.509 58.7524 121.133 58.689 120.63 58.689H119.624H119.616V59.1331C119.959 59.1965 120.201 59.3533 120.343 59.5959C120.533 59.9281 120.626 60.4431 120.626 61.1336V72.1436H128.663V71.33H122.463V71.3262Z" fill="#635245"/>
<path d="M91.2347 17.993C93.4778 12.5104 93.91 12.2715 99.1266 12.0327C99.7973 11.9842 100.222 12.029 100.222 12.029C100.222 12.029 94.8975 11.1444 93.1387 12.391C92.6879 12.7119 91.8383 13.5666 91.0558 15.541C88.4252 22.1918 80.7121 41.6814 79.5793 44.544C77.5411 39.4085 70.4987 21.6469 69.3958 18.8104C67.76 14.6116 66.8173 13.4621 65.3604 12.6522C62.2192 10.9056 54.5471 12.1558 54.7893 12.1447C61.2541 11.8946 63.5495 17.4332 63.773 17.993C67.1265 26.2748 76.9412 51.2023 76.9412 51.2023H78.0628C78.0665 51.2023 89.9492 21.0908 91.2347 17.993Z" fill="#635245" class="v_icn"/>
</svg>
