<svg x="0px" y="0px"
	 viewBox="0 0 1838 284.5" style="enable-background:new 0 0 1838 284.5;">
<g>
	<path style="fill:#F8F8F2;" d="M46,53c-7-16.2-13.5-27.3-19.7-33.2c-6.1-6-14.9-9.6-26.3-10.6V0.8c1.4,0,3.4-0.2,6-0.4
		C8.7,0.1,11.4,0,14.2,0c13.9,0,27.3,3.5,40.1,10.6c12.8,7.1,23.6,21.3,32.6,42.4l71.4,168.6l24.6-57.3
		c11.7-27,34.1-80.5,67.2-160.2h20L150.3,284.5h-7.5L46,53z"/>
	<path style="fill:#F8F8F2;" d="M309.3,4.1h140.3c23.7,0,35.5,11.2,35.5,33.5v31.4h-8.3c0-32.1-17.4-48.1-52.2-48.1h-77.7v108.8
		h112.8v16.7H346.9v117.2H420c19.2,0,34.3-3.5,45.1-10.5c10.9-7,19.5-18.8,25.9-35.5l8.3,2.1l-14.6,39.8
		c-5,13.9-15.4,20.9-31.4,20.9H309.3L309.3,4.1L309.3,4.1z"/>
	<path style="fill:#F8F8F2;" d="M694.5,271.2c-11-8.8-23.2-24.6-36.6-47.5l-41.8-71.2H587v127.6h-37.6V4.1h71
		c26.5,0,50.5,5.2,72,15.7c21.6,10.5,32.3,30.3,32.3,59.6c0,37.1-22.3,60.8-66.8,71.2l43.9,73.2c10.3,17.3,19.6,29.3,27.8,36.2
		c8.2,6.8,17.7,10.8,28.6,11.9v8.3c-2.5,1.1-6,2.1-10.6,2.9c-4.6,0.8-9.4,1.2-14.4,1.2C718.4,284.4,705.5,280,694.5,271.2z
		 M646.5,131.7c10.2-4.2,18.8-10.7,25.9-19.7c7.1-9,10.6-19.8,10.6-32.6c0-13.6-3.5-25-10.6-34.1s-15.8-15.8-25.9-20.1
		c-10.2-4.3-19.3-5.7-28-5.7c-9.8,0-20.4,0.6-31.5,3.4v110.9c11.2,2.8,21.6,4.2,31.4,4.2C626.9,138,636.3,135.9,646.5,131.7z"/>
	<path style="fill:#F8F8F2;" d="M806.1,4.1h72c54,0,94.9,12,122.6,36c27.7,24,41.6,57.4,41.6,100.4c0,27.7-5.8,51.9-17.5,73
		c-11.7,21.1-29.1,37.5-52,49.2c-22.9,11.7-50.9,17.5-83.7,17.5h-82.7L806.1,4.1z M943.5,250.3c16.6-10.2,29.6-24.5,39.1-43.1
		c9.5-18.5,14.2-40.2,14.2-65c0-24.3-4.7-45.7-14-64.4c-9.3-18.7-22.3-33.2-39.1-43.5C927,23.9,908.1,19.5,887,19.5
		c-13.4,0-27.5,1.5-41.9,6v234.8c15.6,3.6,29.8,5.4,42.6,5.4C908.3,265.6,926.9,260.5,943.5,250.3z"/>
	<path style="fill:#F8F8F2;" d="M1278.1,271.2c-13.1-7.4-23.6-21.8-31.4-43.3l-10.5-27.2h-117l-33.4,79.5H1067L1184,4.1h12.5
		l91.9,223.9c7,16.2,13.5,27.3,19.7,33.2c6.1,6,14.9,9.6,26.3,10.6v8.3c-5.1,1.4-10.6,2.1-16.8,2.1
		C1304.4,282.3,1291.1,278.6,1278.1,271.2z M1125.6,184h102.3l-50.2-121.3L1125.6,184z"/>
	<path style="fill:#F8F8F2;" d="M1781.6,271.2c-13.1-7.4-23.6-21.8-31.3-43.3l-10.5-27.2h-117l-33.4,79.5h-18.8l117-276.1h12.5
		L1792,228c7,16.2,13.5,27.3,19.7,33.2c6.1,6,14.9,9.6,26.3,10.6v8.3c-5.1,1.4-10.6,2.1-16.8,2.1
		C1807.9,282.3,1794.7,278.6,1781.6,271.2z M1629.2,184h102.3l-50.2-121.3L1629.2,184z"/>
	<path style="fill:#F8F8F2;" d="M1410.3,263.5V54.3c0-14.2-1.1-24.8-3.4-31.8c-2.2-7-5.9-11.8-11.1-14.4c-5.1-2.7-12.8-4-23.2-4
		H1352h-0.2v9.1c7,1.3,12,4.5,14.9,9.5c3.9,6.8,5.8,17.4,5.8,31.6v226h165v-16.7L1410.3,263.5L1410.3,263.5z"/>
</g>
</svg>
