<?xml version="1.0" encoding="utf-8"?>
<!-- Generator: Adobe Illustrator 27.5.0, SVG Export Plug-In . SVG Version: 6.00 Build 0)  -->
<svg version="1.1" id="Layer_1" xmlns="http://www.w3.org/2000/svg" xmlns:xlink="http://www.w3.org/1999/xlink" x="0px" y="0px"
	 viewBox="0 0 57 49" style="enable-background:new 0 0 57 49;" xml:space="preserve">
<style type="text/css">
	.st0{fill:#F8F8F2;}
</style>
<path class="st0" d="M45.4,7.7c2.8-6.7,3.3-7,9.7-7.3c0.8-0.1,1.3,0,1.3,0s-6.5-1.1-8.7,0.4c-0.6,0.4-1.6,1.4-2.6,3.8
	c-3.2,8.1-12.7,31.9-14.1,35.4c-2.5-6.3-11.2-28-12.5-31.4c-2-5.1-3.2-6.5-5-7.5C9.7-1,0.3,0.5,0.6,0.5c7.9-0.3,10.8,6.5,11,7.1
	c4.1,10.1,16.2,40.6,16.2,40.6h1.4C29.2,48.2,43.8,11.5,45.4,7.7z"/>
</svg>
