<svg width="40" height="37" viewBox="0 0 40 37" fill="none" xmlns="http://www.w3.org/2000/svg">
<path d="M35.418 15.9167L34.0971 4.69417C34.0018 3.88318 33.6121 3.1354 33.002 2.5927C32.3918 2.04999 31.6037 1.75013 30.7871 1.75H10.0488C9.23223 1.75013 8.44411 2.04999 7.83398 2.5927C7.22384 3.1354 6.83414 3.88318 6.7388 4.69417L5.41797 15.9167" stroke="#D9E4D4" stroke-width="3" stroke-miterlimit="10"/>
<path d="M11.2507 32.5834V35.0834H4.58398V32.5834" stroke="#D9E4D4" stroke-width="3" stroke-miterlimit="10" stroke-linecap="square"/>
<path d="M36.2507 32.5834V35.0834H29.584V32.5834" stroke="#D9E4D4" stroke-width="3" stroke-miterlimit="10" stroke-linecap="square"/>
<path d="M38.7507 29.25H2.08398V21.25C2.08363 20.4928 2.34109 19.758 2.81398 19.1666L5.41732 15.9166H35.4173L38.0207 19.1708C38.4927 19.7611 38.7501 20.4942 38.7507 21.25V29.25Z" stroke="#D9E4D4" stroke-width="3" stroke-miterlimit="10" stroke-linecap="square"/>
<path d="M32.084 25.0834C33.4647 25.0834 34.584 23.9641 34.584 22.5834C34.584 21.2027 33.4647 20.0834 32.084 20.0834C30.7033 20.0834 29.584 21.2027 29.584 22.5834C29.584 23.9641 30.7033 25.0834 32.084 25.0834Z" stroke="#D9E4D4" stroke-width="3" stroke-miterlimit="10" stroke-linecap="square"/>
<path d="M8.75 25.0834C10.1307 25.0834 11.25 23.9641 11.25 22.5834C11.25 21.2027 10.1307 20.0834 8.75 20.0834C7.36929 20.0834 6.25 21.2027 6.25 22.5834C6.25 23.9641 7.36929 25.0834 8.75 25.0834Z" stroke="#D9E4D4" stroke-width="3" stroke-miterlimit="10" stroke-linecap="square"/>
<path d="M17.084 22.5834H23.7507" stroke="#D9E4D4" stroke-width="3" stroke-miterlimit="10" stroke-linecap="square"/>
</svg>
