<svg width="11" height="11" viewBox="0 0 11 11" fill="none" xmlns="http://www.w3.org/2000/svg">
<path d="M10.2734 5.5C10.2734 5.58081 10.2413 5.65831 10.1842 5.71545C10.1271 5.77259 10.0496 5.80469 9.96875 5.80469H5.80469V9.96875C5.80469 10.0496 5.77259 10.1271 5.71545 10.1842C5.65831 10.2413 5.58081 10.2734 5.5 10.2734C5.41919 10.2734 5.34169 10.2413 5.28455 10.1842C5.22741 10.1271 5.19531 10.0496 5.19531 9.96875V5.80469H1.03125C0.950442 5.80469 0.872943 5.77259 0.815803 5.71545C0.758663 5.65831 0.726563 5.58081 0.726562 5.5C0.726562 5.41919 0.758663 5.34169 0.815803 5.28455C0.872943 5.22741 0.950442 5.19531 1.03125 5.19531H5.19531V1.03125C5.19531 0.950442 5.22741 0.872943 5.28455 0.815803C5.34169 0.758663 5.41919 0.726563 5.5 0.726562C5.58081 0.726563 5.65831 0.758663 5.71545 0.815803C5.77259 0.872943 5.80469 0.950442 5.80469 1.03125V5.19531H9.96875C10.0496 5.19531 10.1271 5.22741 10.1842 5.28455C10.2413 5.34169 10.2734 5.41919 10.2734 5.5Z" fill="white"/>
</svg>
